<svg xmlns="http://www.w3.org/2000/svg" xmlns:xlink="http://www.w3.org/1999/xlink" width="760" height="760" viewBox="0 0 760 760" fill="none"><g opacity="1"  transform="translate(0 0)"><rect fill="#FFFFFF" opacity="1" transform="translate(0 0)" x="0" y="0" width="760" height="760" rx="0" ry="0"/><mask id="bg-mask-0" fill="white"><use transform="translate(0 0)" xlink:href="#path_0"></use></mask><g mask="url(#bg-mask-0)" ><g opacity="1"  transform="translate(213 265)"><g opacity="1" transform="translate(111 157)"><a xlink:href="https://" xlink:title="跳转" target="_blank"><text><tspan x="0" y="38.96484375" font-size="42" line-height="0" fill="#595959" opacity="1" font-family="Roboto-Regular" font-weight="Regular" letter-spacing="0" >TEAM</tspan></text></a></g><g opacity="1"  transform="translate(0 26.5)"><g opacity="1" transform="translate(270 0)"><a xlink:href="https://" xlink:title="跳转" target="_blank"><text><tspan x="0" y="116.89453125" font-size="126" line-height="0" fill="#B07EF3" opacity="1" font-family="Roboto-Regular" font-weight="Regular" letter-spacing="0" >k</tspan></text></a></g><g opacity="1" transform="translate(201.5 0)"><a xlink:href="https://" xlink:title="跳转" target="_blank"><text><tspan x="0" y="116.89453125" font-size="126" line-height="0" fill="#FD8469" opacity="1" font-family="Roboto-Regular" font-weight="Regular" letter-spacing="0" >c</tspan></text></a></g><g opacity="1" transform="translate(132 0)"><a xlink:href="https://" xlink:title="跳转" target="_blank"><text><tspan x="0" y="116.89453125" font-size="126" line-height="0" fill="#03C9C9" opacity="1" font-family="Roboto-Regular" font-weight="Regular" letter-spacing="0" >a</tspan></text></a></g><g opacity="1" transform="translate(85 0)"><a xlink:href="https://" xlink:title="跳转" target="_blank"><text><tspan x="0" y="116.89453125" font-size="126" line-height="0" fill="#28B6EE" opacity="1" font-family="Roboto-Regular" font-weight="Regular" letter-spacing="0" >r</tspan></text></a></g><g opacity="1" transform="translate(0 0)"><a xlink:href="https://" xlink:title="跳转" target="_blank"><text><tspan x="0" y="116.89453125" font-size="126" line-height="0" fill="#1551C7" opacity="1" font-family="Roboto-Regular" font-weight="Regular" letter-spacing="0" >C</tspan></text></a></g></g><g opacity="1" transform="translate(121 0)"><a xlink:href="https://" xlink:title="跳转" target="_blank"><text><tspan x="0" y="37.109375" font-size="40" line-height="0" fill="#595959" opacity="1" font-family="Roboto-Regular" font-weight="Regular" letter-spacing="0"  >Mi</tspan><tspan x="44.62890625" y="37.109375" font-size="40" line-height="0" fill="#595959" opacity="1" font-family="Roboto-Regular" font-weight="Regular" letter-spacing="0" > AI</tspan></text></a></g></g><g opacity="1"  transform="translate(194 40)"><path fill-rule="evenodd"  id="矩形 2" style="fill:#383838; opacity:1;" d="M383 242C383 248.342 378.783 253.699 373 255.42L373 60.5798C378.783 62.3009 383 67.658 383 74L383 242ZM373 46.2838C386.566 48.2256 397 59.898 397 74L397 242C397 256.102 386.566 267.774 373 269.716C371.694 269.903 370.358 270 369 270L359 270L359 46L369 46C370.358 46 371.694 46.0968 373 46.2838Z"></path><path  id="直线 1" style="fill:#383838; opacity:1;" d="M366 60L7 60L7 46L366 46L366 60Z"></path><path  id="直线 2" style="fill:#383838; opacity:1;" d="M366 604L7 604L7 590L366 590L366 604Z"></path><path fill-rule="evenodd"  id="矩形 1" style="fill:#383838; opacity:1;" d="M319 681L54 681C24.18 681 0 656.82 0 627L0 54C0 24.18 24.18 0 54 0L319 0C348.82 0 373 24.18 373 54L373 627C373 656.82 348.82 681 319 681ZM319 667L54 667C31.9086 667 14 649.091 14 627L14 54C14 31.9086 31.9086 14 54 14L319 14C341.091 14 359 31.9086 359 54L359 627C359 649.091 341.091 667 319 667Z"></path><path id="圆形 1" fill-rule="evenodd" style="fill:#383838" opacity="1" d="M186 19C179.37 19 174 24.37 174 31C174 37.63 179.37 43 186 43C192.63 43 198 37.63 198 31C198 24.37 192.63 19 186 19Z"></path></g><path id="Not Mi Logo" fill-rule="evenodd" style="fill:#FF6A00" opacity="1" d="M374 696L386 696C393.73 696 400 689.73 400 682L400 670C400 662.27 393.73 656 386 656L374 656C366.27 656 360 662.27 360 670L360 682C360 689.73 366.27 696 374 696Z"></path></g></g><defs><rect id="path_0" x="0" y="0" width="760" height="760" rx="0" ry="0"/></defs></svg>